<?xml version="1.0" standalone="no"?>
<!DOCTYPE svg PUBLIC "-//W3C//DTD SVG 20010904//EN"
 "http://www.w3.org/TR/2001/REC-SVG-20010904/DTD/svg10.dtd">
<svg version="1.0" xmlns="http://www.w3.org/2000/svg"
 width="48.000000pt" height="48.000000pt" viewBox="0 0 48.000000 48.000000"
 preserveAspectRatio="xMidYMid meet">

<g transform="translate(0.000000,48.000000) scale(0.100000,-0.100000)"
fill="#000000" stroke="none">
<path d="M81 376 c2 -2 30 -20 62 -40 l57 -37 0 41 0 40 -62 0 c-34 0 -59 -2
-57 -4z"/>
<path d="M220 320 l0 -60 -100 0 c-93 0 -100 -1 -100 -20 0 -19 7 -20 100 -20
l100 0 0 -60 c0 -53 2 -60 20 -60 18 0 20 7 20 60 l0 60 100 0 c93 0 100 1
100 20 0 19 -7 20 -100 20 l-100 0 0 60 c0 53 -2 60 -20 60 -18 0 -20 -7 -20
-60z"/>
<path d="M280 340 c0 -22 2 -40 4 -40 7 0 126 72 126 76 0 2 -29 4 -65 4 l-65
0 0 -40z"/>
<path d="M365 330 c-44 -28 -74 -50 -67 -50 15 0 149 78 158 91 11 18 -13 7
-91 -41z"/>
<path d="M20 362 c0 -11 113 -82 132 -82 10 0 -38 34 -119 84 -7 4 -13 3 -13
-2z"/>
<path d="M20 305 c0 -22 4 -25 40 -25 22 0 40 2 40 4 0 4 -68 46 -76 46 -2 0
-4 -11 -4 -25z"/>
<path d="M420 306 l-35 -21 33 -3 c39 -4 45 -1 40 25 -3 19 -4 19 -38 -1z"/>
<path d="M20 180 c0 -25 7 -25 45 0 l30 20 -37 0 c-31 0 -38 -4 -38 -20z"/>
<path d="M145 188 c-59 -33 -127 -80 -122 -84 5 -5 157 84 157 92 0 7 -14 4
-35 -8z"/>
<path d="M394 165 c32 -20 61 -34 63 -31 7 7 -88 66 -106 66 -9 0 10 -16 43
-35z"/>
<path d="M410 190 c43 -30 50 -31 50 -10 0 16 -6 20 -32 20 -26 0 -30 -3 -18
-10z"/>
<path d="M280 146 l0 -46 78 0 77 0 -30 18 c-16 10 -51 31 -77 46 l-48 28 0
-46z"/>
<path d="M135 149 c-75 -47 -75 -49 -2 -49 l67 0 0 40 c0 22 -3 40 -7 40 -5 0
-30 -14 -58 -31z"/>
</g>
</svg>
